<?xml version="1.0" encoding="UTF-8"?>
<svg id="Vrstva_1" xmlns="http://www.w3.org/2000/svg" version="1.1" viewBox="0 0 1000 1000">
  <!-- Generator: Adobe Illustrator 29.8.3, SVG Export Plug-In . SVG Version: 2.1.1 Build 3)  -->
  <defs>
    <style>
      .st0 {
        fill: #fcec6c;
      }

      .st1 {
        fill: #fdbc5d;
      }

      .st2 {
        fill: #5aa1e5;
      }

      .st3 {
        fill: #6fca8b;
      }

      .st4 {
        fill: #394654;
      }

      .st5 {
        fill: #ea6a5a;
      }

      .st6 {
        fill: #fefefe;
      }

      .st7 {
        fill: #394554;
      }

      .st8 {
        fill: #87d5fb;
      }
    </style>
  </defs>
  <g id="Generativní_objekt">
    <g>
      <path class="st2" d="M647.65,615.93l2.97,4.81,156.12,156.12,3.13,4.87c-154.97,154.01-405.54,154.01-560.51,0l3.03-4.87,156.12-156.12,3.23-4.81c64.82,65.76,171.06,65.78,235.9,0Z"/>
      <path class="st0" d="M809.88,217.74l-3.13,4.77-156.12,156.12-4.66,3.08c-64.44-63.52-168.08-63.52-232.53,0l-4.92-3.08-156.12-156.12-3.03-4.77c154.97-154.01,405.54-154.01,560.51,0Z"/>
      <path class="st3" d="M408.52,378.63l3.23,4.77c-30.54,30.98-47.67,72.76-47.67,116.26l-5.34,1.15h-221.74l-4.95-1.08c0-105.83,42.25-207.39,117.32-282l3.03,4.77,156.12,156.12Z"/>
      <path class="st1" d="M922.15,498.56l-221.74,2.26-5.05-1.15c0-43.41-17.23-85.35-47.7-116.26l2.97-4.77,156.12-156.12,3.13-4.77c74.44,73.98,116.68,174.58,117.33,279.53l-5.06,1.29Z"/>
      <path class="st5" d="M922.15,498.56l5.06-1.29c0,.82,0,1.65,0,2.47,0,104.95-41.62,205.82-115.59,280.25l-4.87-3.13-156.12-156.12-2.97-4.81c29.88-30.31,47.07-71.29,47.68-113.88l5.07-1.23,221.74-2.26Z"/>
      <path class="st8" d="M358.74,500.82l5.36,1.23c.61,42.69,17.7,83.49,47.65,113.88l-3.23,4.81-156.12,156.12-4.77,3.13c-74-74.46-115.58-175.28-115.58-280.25l4.95,1.08h221.74Z"/>
      <path class="st6" d="M650.63,378.63l-2.97,4.77c30.47,30.91,47.7,72.86,47.7,116.26l5.05,1.15-5.07,1.23c-.61,42.59-17.81,83.57-47.68,113.88-64.84,65.78-171.08,65.76-235.9,0-29.95-30.38-47.04-71.19-47.65-113.88l-5.36-1.23,5.34-1.15c0-43.5,17.13-85.28,47.67-116.26l-3.23-4.77,4.92,3.08c64.44-63.52,168.08-63.52,232.53,0l4.66-3.08Z"/>
    </g>
    <g>
      <path class="st7" d="M529.7,673.24s0,0,0,0c-46.86,0-90.77-18.36-123.64-51.7-31.56-32.02-49.3-74.41-49.95-119.37-.01-.83-.02-1.67-.02-2.5,0-45.9,17.74-89.18,49.97-121.87.58-.59,1.17-1.18,1.77-1.77,32.67-32.2,75.95-49.94,121.87-49.94s89.2,17.74,121.87,49.94c.59.59,1.18,1.17,1.77,1.77,31.78,32.23,50,76.66,50,121.87h0s0,0,0,0c0,.83,0,1.67-.02,2.5-.64,44.28-18.85,87.79-49.98,119.37-32.87,33.34-76.78,51.7-123.63,51.7ZM529.7,342.06c-41.7,0-80.99,16.1-110.66,45.34-.54.53-1.07,1.07-1.6,1.6-29.26,29.68-45.37,68.98-45.37,110.66,0,.76,0,1.51.02,2.27.59,40.82,16.69,79.32,45.35,108.39,29.84,30.27,69.71,46.95,112.27,46.95,42.55,0,82.42-16.67,112.26-46.95,28.27-28.68,44.81-68.18,45.39-108.39.01-.76.02-1.51.02-2.27h0c0-41.05-16.55-81.38-45.41-110.66-.53-.54-1.07-1.07-1.61-1.61-29.66-29.24-68.96-45.34-110.66-45.34Z"/>
      <path class="st7" d="M530.7,897.98c-4.41,0-7.98-3.57-7.98-7.98v-219.48c0-4.41,3.57-7.98,7.98-7.98s7.98,3.57,7.98,7.98v219.48c0,4.41-3.57,7.98-7.98,7.98Z"/>
      <path class="st7" d="M252.4,784.85c-2.04,0-4.09-.78-5.65-2.34-3.12-3.12-3.12-8.17,0-11.29l156.12-156.12c3.12-3.12,8.17-3.12,11.29,0,3.12,3.12,3.12,8.17,0,11.29l-156.12,156.12c-1.56,1.56-3.6,2.34-5.65,2.34Z"/>
      <path class="st7" d="M806.75,784.85c-2.04,0-4.09-.78-5.64-2.34l-156.12-156.12c-3.12-3.12-3.12-8.17,0-11.29,3.12-3.12,8.17-3.12,11.29,0l156.12,156.12c3.12,3.12,3.12,8.17,0,11.29-1.56,1.56-3.6,2.34-5.64,2.34Z"/>
      <path class="st7" d="M358.74,508.8h-221.74c-4.41,0-7.98-3.57-7.98-7.98s3.57-7.98,7.98-7.98h221.74c4.41,0,7.98,3.57,7.98,7.98s-3.57,7.98-7.98,7.98Z"/>
      <path class="st7" d="M650.63,386.62c-2.04,0-4.09-.78-5.64-2.34-3.12-3.12-3.12-8.17,0-11.29l156.12-156.12c3.12-3.12,8.17-3.12,11.29,0,3.12,3.12,3.12,8.17,0,11.29l-156.12,156.12c-1.56,1.56-3.6,2.34-5.64,2.34Z"/>
      <path class="st7" d="M408.52,386.62c-2.04,0-4.09-.78-5.65-2.34l-156.12-156.12c-3.12-3.12-3.12-8.17,0-11.29,3.12-3.12,8.17-3.12,11.29,0l156.12,156.12c3.12,3.12,3.12,8.17,0,11.29-1.56,1.56-3.6,2.34-5.65,2.34Z"/>
      <path class="st7" d="M700.4,508.8c-4.37,0-7.94-3.52-7.98-7.9-.04-4.41,3.49-8.02,7.9-8.06l221.74-2.26c4.44-.04,8.02,3.49,8.06,7.9.04,4.41-3.49,8.02-7.9,8.06l-221.74,2.26s-.06,0-.08,0Z"/>
      <path class="st7" d="M529.62,905.23c-52.48,0-103.64-9.91-152.08-29.46-50.14-20.24-95.16-49.97-133.8-88.37-.6-.59-1.19-1.19-1.78-1.78-37.57-37.8-66.92-81.96-87.25-131.27-20.33-49.3-30.64-101.32-30.64-154.61s10.47-106.14,31.12-155.77c20.65-49.64,50.45-94.01,88.56-131.89,38.64-38.4,83.66-68.14,133.8-88.37,48.43-19.54,99.6-29.46,152.08-29.46,0,0,0,0,0,0,52.48,0,103.64,9.91,152.08,29.46,50.14,20.24,95.16,49.97,133.8,88.37,37.79,37.56,67.42,81.54,88.07,130.72,20.65,49.19,31.29,101.15,31.62,154.42,0,.84,0,1.68,0,2.52h0c0,53.28-10.31,105.3-30.66,154.62-20.34,49.31-49.7,93.48-87.25,131.26-.59.59-1.18,1.19-1.78,1.78-38.65,38.41-83.66,68.14-133.81,88.37-48.44,19.55-99.6,29.46-152.08,29.46ZM529.63,110.21c-103.65,0-201.18,40.2-274.63,113.19-36.61,36.38-65.23,79.01-85.07,126.7-19.84,47.68-29.9,98.03-29.9,149.64s9.9,101.16,29.43,148.52c19.53,47.36,47.73,89.79,83.82,126.1.57.57,1.14,1.14,1.71,1.71,73.44,72.99,170.97,113.19,274.63,113.19s201.18-40.2,274.63-113.19c.57-.57,1.14-1.14,1.71-1.71,36.08-36.3,64.28-78.73,83.82-126.1,19.54-47.38,29.45-97.35,29.45-148.53h0c0-.81,0-1.61,0-2.42-.32-51.17-10.54-101.08-30.37-148.34-19.83-47.25-48.3-89.5-84.6-125.58-73.44-72.99-170.97-113.19-274.63-113.19Z"/>
      <path class="st7" d="M530.7,336.84c-4.41,0-7.98-3.57-7.98-7.98V107.11c0-4.41,3.57-7.98,7.98-7.98s7.98,3.57,7.98,7.98v221.74c0,4.41-3.57,7.98-7.98,7.98Z"/>
      <path class="st4" d="M528.39,1000c-32.12,0-63.94-3.01-95.02-9.02-41.83-8.08-82.48-21.61-120.82-40.21-73.95-35.87-138.85-90.5-187.7-158-48.85-67.5-80.46-146.23-91.43-227.68-5.68-42.23-5.83-85.07-.44-127.33,5.61-43.99,17.27-87.55,34.64-129.48C120.28,181.21,219.18,84.01,346.12,34.61,406.11,11.26,469.26-.37,533.84,0c65.55.39,129.14,13.19,189,38.05,3.45,1.43,5.08,5.38,3.65,8.83-1.43,3.45-5.38,5.08-8.83,3.65-58.23-24.18-120.11-36.63-183.9-37.01-62.88-.37-124.35,10.96-182.74,33.68-123.47,48.05-219.68,142.61-270.91,266.26-16.91,40.81-28.25,83.21-33.72,126.02-5.24,41.09-5.1,82.75.43,123.82,10.67,79.25,41.43,155.86,88.98,221.56,47.55,65.7,110.71,118.87,182.65,153.76,37.28,18.08,76.81,31.24,117.48,39.1,42.37,8.19,86.18,10.66,130.24,7.35,55.79-4.19,109.55-17.52,159.8-39.62,3.42-1.5,7.4.05,8.9,3.46s-.05,7.4-3.46,8.9c-51.65,22.72-106.9,36.42-164.22,40.73-12.96.97-25.91,1.46-38.8,1.46Z"/>
    </g>
  </g>
</svg>